# xmcd
#
# Track frame offsets:
# 150
# 21616
# 49197
# 87397
# 103573
# 141369
# 199382
#
# Disc length: 2825 seconds
#
#
# Revision: 0
# Processed by: cddbd v1.5.2PL0 Copyright (c) Steve Scherf et al.
# Submitted via: FreeRIP 2.951 
#
DISCID=670b0707
DTITLE=Eric Burdon Band - Sun Secrets
DYEAR=1974
DGENRE=Blues
TTITLE0=It´s My Life
TTITLE1=Ring Of Fire
TTITLE2=When I Was Young
TTITLE3=Real Me
TTITLE4=Don't Let Me Be Misunderstood
TTITLE5=Letter From The Country Farm
TTITLE6=Sun Secrets
EXTD=
EXTT0=
EXTT1=
EXTT2=
EXTT3=
EXTT4=
EXTT5=
EXTT6=
PLAYORDER=
